<?xml version="1.0" encoding="utf-8"?>
<!-- Generator: Adobe Illustrator 16.0.0, SVG Export Plug-In . SVG Version: 6.00 Build 0)  -->
<svg version="1.2" baseProfile="tiny" id="VECTOR_v3_kerned_1_"
	 xmlns="http://www.w3.org/2000/svg" xmlns:xlink="http://www.w3.org/1999/xlink" x="0px" y="0px" width="2756.961px"
	 height="1221.517px" viewBox="0 0 2756.961 1221.517" xml:space="preserve">
<g id="R">
	<path fill-rule="evenodd" fill="#FFFFFF" d="M575.421,418.484c79.396-0.194,140.322-3.996,195.667-39.991
		c31.053-20.197,60-52.3,60-116V88.176c0-79.683-80-79.683-80-79.683h-711c-5,0-9,3-9,8c0,7.375,0,3.286,0,14
		c0,4.53,2.668,8.144,8.495,8.144c50.997,0,90.505,31.628,90.505,71.856v298c0,6.41,0,10,0,10v310c0,0,0,80-118.743,80
		c44.729,0,118.743,0,118.743,0s244.35,0,292,0c4.166,0,8-1.833,8-6.5c0-6.154,0-3.995,0-14.5c0-4.453-3.668-7.087-6.998-7.087
		c-64.122,0-93.002-37.637-93.002-71.913V418.74c132.823,4.205,261,64.466,261,189.753h200
		C791.088,503.816,677.866,440.644,575.421,418.484z M515.088,408.493H409.771c-79.683,0-79.683-80-79.683-80V98.176
		c0-79.683-80-79.683-80-79.683h301c0,0,80,0,80,79.683v164.317C631.088,295.993,631.088,408.493,515.088,408.493z M591.088,608.493
		h-200c0,120,65.125,200,356,200h128C665.401,808.493,591.088,722,591.088,608.493z"/>
</g>
<g id="e">
	<path fill-rule="evenodd" fill="#FFFFFF" d="M1191.45,528.537c11.865,29.352,13.763,56.4,12.639,76.956
		c-3.154,57.655-35.51,89.23-44,99c-34.033,39.16-85.939,47.189-118,45c-35.142-2.399-73.368-16.048-109.309-56.621l221.309-221.379
		l-2.139-1.871c0.007-0.006,0.021-0.019,0.026-0.024c-36.371-37.67-87.39-61.104-143.888-61.104c-110.457,0-200,89.543-200,200
		s89.543,200,200,200s200-89.543,200-200C1208.088,580.063,1202.144,553.026,1191.45,528.537z M925.088,583.493
		c20.618-25.186,52.819-20.154,65-15c12.883,5.451,28.313,20.367,18.6,33.972L926.396,685.1
		C907.113,658.612,900.077,614.044,925.088,583.493z"/>
</g>
<g id="z">
	<path fill-rule="evenodd" fill="#FFFFFF" d="M1527.143,798.576l-72.21-70.083l-31.013,29c0,0,18.008,13.666,19.008,26
		c0.935,11.524-8.756,14.898-18.737,15.02l4.129,0.039c-34.911-0.01-73.894-0.021-108.14-0.03l90.908-112.028l-55.798-55.246
		c6.386-7.794,168.193-205.263,173.798-211.754c5.066-5.867,2.267-11-4-11h-87c-41.831,0-83,0-83,0h-215
		c-5,0-5.334,5.666-1.787,9.916h0.729l72.058,70.084l31-29c0,0-18-13.667-19-26c-0.918-11.323,6.874-14.777,16.411-15.009
		c-0.892-0.015-1.958-0.033-3.166-0.054c35.88,0.01,75.744,0.021,110.501,0.032l-92.747,112.031l56,56
		c0,0-168.661,205.291-174.172,212.089c-4.269,5.267-0.497,9.911,4.172,9.911h87.756c42.415,0,84.244,0,84.244,0h210
		c8.201,0,9.008-6.569,5.66-9.917H1527.143z M1242.088,418.493c-0.874-0.027-1.738-0.03-2.589-0.009
		C1242.522,418.533,1243.642,418.542,1242.088,418.493z"/>
</g>
<g id="u">
	<path fill="#FFFFFF" d="M1810.087,408.493c0,0,0,181,0,241c0,79-46.999,112-89.999,112c-42.917,0-80-33-80-125v-28c0-5.25,0-7,0-7
		v-194c0-5.917-1.983-9.759-8-11c-5.981-1.234-10,1.333-12,6c-30.707,66.954-124.883,139.823-181.436,171.295
		c-4.015,2.234-6.802,4.428-3.813,9.042c3.399,5.247,1.631,1.888,7.548,12.167c1.991,3.461,4.226,4.189,7.803,2.172
		c28.288-15.955,29.897-15.455,29.897,12.324v49c0,82.843,76.111,150,170,150c102.159,0,170-62.605,170-156c0-82.843,0-244,0-244
		H1810.087z"/>
</g>
<g id="a">
	<path fill-rule="evenodd" fill="#FFFFFF" d="M2263.567,743.003c-1.043,0.761-20.042,5.354-32.479-2.51c-14.707-9.299-14-32-14-69
		c0-14,0-147,0-147l-0.011,0.003c-0.446-97.968-66.147-117.003-187.989-117.003h-92c-3.26,0.393-5.738,0.824-7.567,1.284
		c-51.693,3.868-92.433,47.034-92.433,99.716c0,53.643,42.238,97.416,95.27,99.886c-57.313,27.767-116.956,74.545-91.27,144.114
		c27.494,74.468,116.671,56.354,157,38c19.771-8.999,34.139-16.417,34.139-16.417l61.679-28.765
		c2.593,20.052,8.455,36.058,20.601,48.729c16.66,17.385,43.867,24.05,73.582,8.452c39.143-20.547,83.017-47.115,84-50
		C2274.338,745.889,2268.747,739.227,2263.567,743.003z M2070.919,745.08c0,0-6.215,3.067-14.831,7.413
		c-50.648,22.459-97.383-3.223-111-41c-9.413-26.111-21.455-88.272,34-112c0.726-0.325,1.333-0.698,1.839-1.102
		c33.253-16.247,56.161-50.395,56.161-89.898c0-37.731-20.899-70.576-51.751-87.604c96.276,10.457,106.751,78.288,106.751,147.604
		v142c0,8.658,0.217,16.756,0.775,24.339L2070.919,745.08z"/>
</g>
<g id="q">
	<path fill-rule="evenodd" fill="#FFFFFF" d="M2640.088,1021.493v-485c0-75.441,50.264-85.656,103-70
		c-101.82-30.322-238.995-73.207-241-74c-8.539-3.375-18.438-2.219-20,7c-0.57,3.363-1.553,8.525-2.401,12.891
		c-12.801-2.546-26.04-3.891-39.599-3.891c-110.457,0-200,89.543-200,200s89.543,200,200,200c13.699,0,27.075-0.161,40-0.807
		v258.807c0,19.889-7.753,26.748-20.034,32.826c-12.163,6.02-10.309,4.47-10.309,4.47c-5.866,2.735-8.73,9.011-6.396,14.017
		c0,0,11.846,20.471,21.739,41.688c11.16,23.935,20.523,48.943,20.523,48.943c2.334,5.005,8.981,6.845,14.849,4.109
		c0,0,43.628-24.099,101.628-51.053c48.979-22.763,137.742-58.925,143-62C2691.088,1121.993,2640.088,1127.194,2640.088,1021.493z
		 M2509.088,786.493c-71.797,0-130-78.351-130-175c0-96.65,58.203-175,130-175c55.203,0,121,34.313,121,175
		C2630.088,756.74,2580.885,786.493,2509.088,786.493z"/>
</g>
</svg>
